HIERARCHY
ROOT ui
{
	 OFFSET 0 0 0
	 CHANNELS 3 XPosition YPosition Z Position
	 EndSite
	 {
	 OFFSET 0 -1 0
	 }
}
ROOT li
{
	 OFFSET 0 0 0
	 CHANNELS 3 XPosition YPosition Z Position
	 EndSite
	 {
	 OFFSET 0 -1 0
	 }
}
ROOT ul
{
	 OFFSET 0 0 0
	 CHANNELS 3 XPosition YPosition Z Position
	 EndSite
	 {
	 OFFSET 0 -1 0
	 }
}
ROOT ll
{
	 OFFSET 0 0 0
	 CHANNELS 3 XPosition YPosition Z Position
	 EndSite
	 {
	 OFFSET 0 -1 0
	 }
}
ROOT tt
{
	 OFFSET 0 0 0
	 CHANNELS 3 XPosition YPosition Z Position
	 EndSite
	 {
	 OFFSET 0 -1 0
	 }
}
ROOT tb
{
	 OFFSET 0 0 0
	 CHANNELS 3 XPosition YPosition Z Position
	 EndSite
	 {
	 OFFSET 0 -1 0
	 }
}
ROOT td
{
	 OFFSET 0 0 0
	 CHANNELS 3 XPosition YPosition Z Position
	 EndSite
	 {
	 OFFSET 0 -1 0
	 }
}
ROOT v
{
	 OFFSET 0 0 0
	 CHANNELS 3 XPosition YPosition Z Position
	 EndSite
	 {
	 OFFSET 0 -1 0
	 }
}
ROOT bn
{
	 OFFSET 0 0 0
	 CHANNELS 3 XPosition YPosition Z Position
	 EndSite
	 {
	 OFFSET 0 -1 0
	 }
}
MOTION
Frames: 29
Frame Time: 0.002
-0.0012361940145492554	0.004359903812408447	0		0.4310823059082031	-2.43133837890625	0		-1.0924393310546876	-0.009124645233154297	0		-0.664091552734375	-2.5367861328125	0		1.8145833740234374	-0.96985791015625	0		3.17854443359375	-0.033200553894042965	0		4.558095703125	0.201253173828125	0		6.00269873046875	0.53502587890625	0		-0.20717622375488282	5.88586083984375	0		
0.0028919661045074463	-6.636300086975097E-4	0		0.4292891540527344	-2.43329052734375	0		-1.13810791015625	0.0053565468788146975	0		-0.7046803588867188	-2.519349365234375	0		1.7768062744140625	-0.967404541015625	0		3.18177880859375	-0.0281530818939209	0		4.54235791015625	0.209527099609375	0		6.00795361328125	0.5431063232421875	0		-0.22420191955566407	5.8770546875	0		
4.9798000603914264E-5	-0.0036075620651245116	0		0.4394286804199219	-2.44236279296875	0		-1.0649754638671876	-4.0781798958778383E-4	0		-0.6135121459960937	-2.526294921875	0		1.7829501953125	-0.9734097900390625	0		3.201904296875	-0.03427924346923828	0		4.5535322265625	0.20852076721191407	0		6.00796435546875	0.527243896484375	0		-0.2090078125	5.88791650390625	0		
0.0032750740051269533	-6.106340289115906E-4	0		0.41372103881835937	-2.437053466796875	0		-1.13772509765625	0.005367391109466553	0		-0.6849953002929687	-2.499523193359375	0		1.7831617431640625	-0.9733486938476562	0		3.18918359375	-0.026056238174438476	0		4.5579423828125	0.22958924865722657	0		6.01631591796875	0.5432971801757812	0		-0.17584963989257812	5.8945947265625	0		
0.00346984601020813	-5.790129899978638E-4	0		0.4429574279785156	-2.437318603515625	0		-1.059545166015625	0.003561398983001709	0		-0.6047501220703125	-2.49934228515625	0		1.783373779296875	-0.9732854614257812	0		3.202294189453125	-0.034103893280029295	0		4.56506982421875	0.22362864685058595	0		6.00850146484375	0.5435193481445313	0		-0.2108099365234375	5.889990234375	0		
6.298810243606567E-4	-0.003513783931732178	0		0.44116958618164065	-2.43925634765625	0		-1.1042991943359375	0.00904742431640625	0		-0.6823025512695312	-2.47850390625	0		1.7805400390625	-0.977189697265625	0		3.196674560546875	-0.015953664779663087	0		4.55325830078125	0.223865966796875	0		6.00868359375	0.5436558227539062	0		-0.22582331848144532	5.880177734375	0		
-1.0365799814462662E-4	0.004531283855438232	0		0.43247625732421874	-2.43112060546875	0		-0.9931643676757812	0.003905116081237793	0		-0.6149993896484375	-2.471180419921875	0		1.8136534423828126	-0.9854699096679688	0		3.189753662109375	-0.02579275703430176	0		4.55152099609375	0.2319958038330078	0		6.008857421875	0.5437889404296875	0		-0.19266522216796875	5.88686376953125	0		
-0.003049230098724365	-0.006400780200958252	0		0.4126003723144531	-2.43886865234375	0		-1.1098951416015626	0.014145824432373047	0		-0.6796427001953125	-2.4564765625	0		1.7807872314453126	-0.9900614624023437	0		3.174923828125	-0.025551193237304686	0		4.55360302734375	0.2240814208984375	0		6.00493505859375	0.5359595947265625	0		-0.22663697814941405	5.882251953125	0		
0.004163163185119629	-4.3724098801612853E-4	0		0.4537206726074219	-2.445252685546875	0		-1.070747314453125	0.01376053237915039	0		-0.6693433837890626	-2.44555419921875	0		1.7928155517578126	-1.0031234741210937	0		3.21196826171875	-0.035853858947753905	0		4.55881201171875	0.23013092041015626	0		6.02206591796875	0.5349052124023438	0		-0.21048841857910155	5.8901181640625	0		
0.008330554008483886	0.0035587089061737062	0		0.41212030029296876	-2.4217734375	0		-1.0575076904296874	0.024648372650146484	0		-0.7017570190429687	-2.40418408203125	0		1.79599609375	-0.9990936279296875	0		3.194251708984375	-0.02058755111694336	0		4.5600908203125	0.24521722412109376	0		6.0133623046875	0.5521146240234375	0		-0.2114188232421875	5.89216357421875	0		
0.004384866237640381	-3.6050400137901305E-4	0		0.4700338134765625	-2.442331298828125	0		-1.0054359130859376	0.02213444900512695	0		-0.6646658935546875	-2.407537841796875	0		1.7791669921875	-0.9928570556640625	0		3.191171142578125	-0.037478580474853515	0		4.56812109375	0.2392275390625	0		6.00528564453125	0.5363090209960938	0		-0.21336187744140625	5.895220703125	0		
-0.047543136596679685	0.0012194600105285645	0		0.4411202392578125	-2.441985107421875	0		-1.0113250732421875	0.027225906372070313	0		-0.6235628662109375	-2.4059306640625	0		1.820974609375	-1.0182326049804689	0		3.176231201171875	-0.03724869537353516	0		4.55210546875	0.23248284912109374	0		6.0043388671875	0.536423583984375	0		-0.2284792938232422	5.88441455078125	0		
0.0014299850463867188	-0.003247704982757568	0		0.4411607360839844	-2.441939453125	0		-1.01130810546875	0.027257556915283202	0		-0.6903946533203125	-2.393200927734375	0		1.7820244140625	-1.0157695922851562	0		3.19212353515625	-0.049342487335205076	0		4.54720361328125	0.24061888122558595	0		5.9932685546875	0.528636474609375	0		-0.22851803588867187	5.8844541015625	0		
-0.047550140380859376	0.0013021700382232666	0		0.4241273193359375	-2.444717041015625	0		-1.0113325805664062	0.027291152954101564	0		-0.6843260498046875	-2.386227294921875	0		1.7820089111328126	-1.0157119750976562	0		3.18223486328125	-0.036169803619384766	0		4.55616650390625	0.23960708618164062	0		6.01823876953125	0.5284712524414062	0		-0.21347970581054687	5.89533837890625	0		
0.03137485885620117	-4.728170037269592E-4	0		0.442147705078125	-2.43885693359375	0		-1.012310302734375	0.03533633804321289	0		-0.6772952270507813	-2.37926220703125	0		1.784987548828125	-1.012685546875	0		3.188988037109375	-0.054172401428222654	0		4.547115234375	0.24078016662597657	0		6.00934033203125	0.5446552734375	0		-0.1795374755859375	5.90002734375	0		
0.004288165092468261	-1.4858700335025786E-4	0		0.44207852172851564	-2.43880908203125	0		-1.0223775024414063	0.03747644424438477	0		-0.6013999633789062	-2.383009033203125	0		1.8178123779296875	-1.021968017578125	0		3.202013427734375	-0.043238094329833984	0		4.55409716796875	0.24778733825683594	0		6.00908203125	0.5287474975585937	0		-0.19477415466308592	5.8902265625	0		
-0.0028811819553375244	-0.006029733180999756	0		0.4389381103515625	-2.443728271484375	0		-1.0284437255859376	0.04157651138305664	0		-0.6713925170898437	-2.373244384765625	0		1.8177125244140624	-1.0219078979492187	0		3.179803955078125	-0.05293928909301758	0		4.55078076171875	0.22790065002441406	0		6.00505322265625	0.536880859375	0		-0.2289874725341797	5.884623046875	0		
0.0040599508285522464	-5.408500134944916E-5	0		0.4477533264160156	-2.45176904296875	0		-1.0245235595703126	0.0455753288269043	0		-0.5955194091796875	-2.375986328125	0		1.818465576171875	-1.0348551025390624	0		3.160633056640625	-0.0576698112487793	0		4.5386591796875	0.22810813903808594	0		6.00084619140625	0.5290173950195313	0		-0.22915351867675782	5.88466943359375	0		
0.003932466983795166	-2.2919999901205302E-6	0		0.45169659423828123	-2.44675537109375	0		-1.0155692749023437	0.053525672912597654	0		-0.6604801635742188	-2.361268798828125	0		1.78544091796875	-1.0254488525390626	0		3.193473388671875	-0.060933658599853516	0		4.53566455078125	0.2412259521484375	0		6.00578662109375	0.536064453125	0		-0.1801648254394531	5.900212890625	0		
0.007844330787658692	0.004013061046600342	0		0.45158734130859374	-2.44669482421875	0		-1.0176162719726562	0.06159439849853516	0		-0.5826045532226563	-2.36302197265625	0		1.8232974853515624	-1.0277694091796874	0		3.17450048828125	-0.0456556396484375	0		4.53839892578125	0.22828945922851562	0		6.00057080078125	0.52822216796875	0		-0.18034208679199218	5.90026806640625	0		
0.0036765179634094237	1.1782900243997574E-4	0		0.4385126647949219	-2.443493896484375	0		-1.027732666015625	0.0627521629333496	0		-0.6606970825195313	-2.36115966796875	0		1.8150662841796874	-1.0386077880859375	0		3.146138427734375	-0.06827599334716797	0		4.52234326171875	0.23555523681640625	0		5.99653271484375	0.5373764038085938	0		-0.19956875610351563	5.89552587890625	0		
0.0035549700260162354	1.8863099813461304E-4	0		0.43639096069335936	-2.44539892578125	0		-0.9478178100585938	0.0659902572631836	0		-0.5868544311523437	-2.366856201171875	0		1.8119227294921876	-1.0414908447265625	0		3.172954345703125	-0.07445680236816406	0		4.53321923828125	0.2355503387451172	0		5.99232421875	0.5295386962890625	0		-0.23477867126464844	5.89195556640625	0		
-0.0036210150718688967	-0.005659846782684326	0		0.445212890625	-2.453408447265625	0		-1.022928955078125	0.06683371734619141	0		-0.6400606689453125	-2.37723583984375	0		1.8147132568359374	-1.051427734375	0		3.158727783203125	-0.0852078857421875	0		4.52703076171875	0.22872747802734375	0		5.98811328125	0.5207069091796875	0		-0.23493992614746093	5.892033203125	0		
0.003333905935287476	3.5644900798797606E-4	0		0.445124267578125	-2.453316650390625	0		-1.0149540405273438	0.07483222198486328	0		-0.6231610717773437	-2.37832666015625	0		1.7915333251953125	-1.0590889892578126	0		3.16287890625	-0.060138771057128906	0		4.5269228515625	0.2288489990234375	0		6.00008447265625	0.5287152099609375	0		-0.22096652221679688	5.90397509765625	0		
0.003236618995666504	4.5619198679924014E-4	0		0.44908389282226563	-2.44925537109375	0		-1.0059803466796875	0.08183245086669921	0		-0.6232427978515624	-2.37823095703125	0		1.8263897705078125	-1.0643370361328126	0		3.1475771484375	-0.07986318969726562	0		4.52682421875	0.228978271484375	0		5.99998388671875	0.5288541259765625	0		-0.20216500854492186	5.89787841796875	0		
1.1851000040769577E-4	-0.002400063991546631	0		0.46991705322265626	-2.458355224609375	0		-0.9460200805664063	0.08632283782958984	0		-0.5544228515625	-2.388830078125	0		1.7832593994140624	-1.068771728515625	0		3.1875498046875	-0.0741434097290039	0		4.52659130859375	0.21511793518066405	0		5.99989306640625	0.5290015258789063	0		-0.20326597595214843	5.90000048828125	0		
0.0030717029571533205	6.968619823455811E-4	0		0.44287384033203125	-2.45594775390625	0		-0.94205712890625	0.09040472412109375	0		-0.5872608032226563	-2.3663671875	0		1.818134033203125	-1.0739940185546875	0		3.13843408203125	-0.07749634552001954	0		4.5195751953125	0.22133998107910155	0		5.9957314453125	0.5212008666992187	0		-0.20436256408691406	5.90113720703125	0		
-0.007098060131072998	-0.009054574012756347	0		0.4776809387207031	-2.4691591796875	0		-0.9421251831054688	0.09054627990722657	0		-0.558597412109375	-2.3935205078125	0		1.7800933837890625	-1.071451416015625	0		3.1653037109375	-0.08361491394042969	0		4.51950634765625	0.22150381469726563	0		5.987662109375	0.5214528198242188	0		-0.22241230773925783	5.90546630859375	0		
0.002946027994155884	0.0010082210302352905	0		0.46160040283203124	-2.471827392578125	0		-1.0040570678710938	0.10334483337402343	0		-0.5467001342773438	-2.39847900390625	0		1.8269847412109375	-1.076761962890625	0		3.167215087890625	-0.08645983123779297	0		4.5172939453125	0.2067046203613281	0		6.00050927734375	0.5125038452148437	0		-0.22149835205078125	5.90462158203125	0		
